<?xml version="1.0" encoding="utf-8"?>
<!-- Generator: Adobe Illustrator 22.0.1, SVG Export Plug-In . SVG Version: 6.00 Build 0)  -->
<svg version="1.1" id="圖層_1" xmlns="http://www.w3.org/2000/svg" xmlns:xlink="http://www.w3.org/1999/xlink" x="0px" y="0px"
	 viewBox="0 0 512 512" style="enable-background:new 0 0 512 512;" xml:space="preserve">
<style type="text/css">
	.st0{fill:#FF9578;}
	.st1{fill:#C9B5FF;}
	.st2{fill:#3FFF32;}
</style>
<g>
	<path class="st0" d="M272.3,466.9L272.3,466.9c-39.3,19.7-87.5,3.6-107.2-35.7L30.2,161.9c-19.7-39.3-3.6-87.5,35.7-107.2l0,0
		c39.3-19.7,87.5-3.6,107.2,35.7l134.9,269.3C327.6,399,311.6,447.2,272.3,466.9z"/>
</g>
<g>
	<path class="st1" d="M358.8,466.9L358.8,466.9c-39.3,19.7-87.5,3.6-107.2-35.7L116.7,161.9c-19.7-39.3-3.6-87.5,35.7-107.2l0,0
		c39.3-19.7,87.5-3.6,107.2,35.7l134.9,269.3C414.1,399,398.1,447.2,358.8,466.9z"/>
</g>
<g>
	<path class="st2" d="M445.3,466.9L445.3,466.9c-39.3,19.7-87.5,3.6-107.2-35.7L203.2,161.9c-19.7-39.3-3.6-87.5,35.7-107.2l0,0
		c39.3-19.7,87.5-3.6,107.2,35.7l134.9,269.3C500.6,399,484.6,447.2,445.3,466.9z"/>
</g>
</svg>
